# xmcd CD database file
#
# Track frame offsets:
#	150
#	29379
#	73430
#	110559
#	133371
#	159181
#	184744
#
# Disc length: 2684 seconds
#
# Revision: 1
# Processed by: cddbd v1.5.1PL0 Copyright (c) Steve Scherf et al.
# Submitted via: CDex 1.51
#
DISCID=650a7a07
DTITLE=Richard Hiebinger - Tao-Meditation - Rich Art
DYEAR=2004
DGENRE=New Age
TTITLE0=Cycles (Richard Hiebinger)
TTITLE1=Bamboo Dreams (Richard Hiebinger)
TTITLE2=Tao-Meditation (Richard Hiebinger)
TTITLE3=Cosmic Breath (Richard Hiebinger)
TTITLE4=Gentle Energy (Richard Hiebinger)
TTITLE5=The Cycle Closes (Richard Hiebinger)
TTITLE6=Universal Waves (Richard Hiebinger)
EXTD=YEAR: 2004
EXTT0=
EXTT1=
EXTT2=
EXTT3=
EXTT4=
EXTT5=
EXTT6=
PLAYORDER=
